<svg xmlns="http://www.w3.org/2000/svg" xmlns:xlink="http://www.w3.org/1999/xlink" viewBox="0 0 49.16 33.9"><defs><style>.cls-1{fill:none;}.cls-2{fill:#773dbd;}.cls-3{clip-path:url(#clip-path);}.cls-4{fill:#303030;}</style><clipPath id="clip-path"><path class="cls-1" d="M41.75,2.76H33.4L24.05,22.1l-.12-1.2L22.83,2.76H16.42L17.1,9,12.32,20.9,11.06,25l-.38-4.14L9.62,2.76H3L6.43,31.11h7L17.06,21l1.14-3.11L18.54,21,19.6,31.11h7.31l2.2-5.31h9.68l.57,5.31H46ZM30.9,21.35,36,8.83l.72-2.2.11,2.2,1.41,12.52Z"/></clipPath></defs><g id="Logos"><g id="New_Logo" data-name="New Logo"><path class="cls-2" d="M41.75,2.76H33.4L24.05,22.1l-.12-1.2L22.83,2.76H16.42L17.1,9,12.32,20.9,11.06,25l-.38-4.14L9.62,2.76H3L6.43,31.11h7L17.06,21l1.14-3.11L18.54,21,19.6,31.11h7.31l2.2-5.31h9.68l.57,5.31H46ZM30.9,21.35,36,8.83l.72-2.2.11,2.2,1.41,12.52Z"/><path class="cls-2" d="M44.13,0H31.67L26.12,11.49,25.42,0H13.34l.94,8.63L12.92,12l-.7-12H-.13L4,33.87H15.31L16.72,30l.4,3.87H28.75L31,28.55h5.36l.57,5.32H49.16ZM37.88,26.81H29.79l-2.2,5.31h-8.9l-1-9.83-3.57,9.83H5.54L1.84,1.74h8.74l1.06,18.13,4.43-11-.78-7.14h8.49l1,16.52,8-16.52h9.85l4.52,30.38H38.45Z"/><polygon class="cls-2" points="37.13 20.34 32.4 20.34 36.11 11.28 37.13 20.34"/><g id="Halftones"><g class="cls-3"><circle class="cls-4" cx="-0.44" cy="3.83" r="0.46"/><circle class="cls-4" cx="-0.03" cy="2.32" r="0.44"/><circle class="cls-4" cx="0.37" cy="0.81" r="0.42"/><circle class="cls-4" cx="-0.51" cy="11.41" r="0.56"/><circle class="cls-4" cx="-0.1" cy="9.89" r="0.54"/><circle class="cls-4" cx="0.31" cy="8.38" r="0.52"/><circle class="cls-4" cx="0.71" cy="6.86" r="0.5"/><circle class="cls-4" cx="1.12" cy="5.35" r="0.48"/><circle class="cls-4" cx="1.52" cy="3.83" r="0.46"/><circle class="cls-4" cx="1.93" cy="2.32" r="0.44"/><circle class="cls-4" cx="2.34" cy="0.81" r="0.42"/><circle class="cls-4" cx="-0.57" cy="18.98" r="0.65"/><circle class="cls-4" cx="-0.16" cy="17.47" r="0.63"/><circle class="cls-4" cx="0.24" cy="15.95" r="0.61"/><circle class="cls-4" cx="0.65" cy="14.44" r="0.6"/><circle class="cls-4" cx="1.05" cy="12.92" r="0.58"/><circle class="cls-4" cx="1.46" cy="11.41" r="0.56"/><circle class="cls-4" cx="1.87" cy="9.89" r="0.54"/><circle class="cls-4" cx="2.27" cy="8.38" r="0.52"/><circle class="cls-4" cx="2.68" cy="6.86" r="0.5"/><circle class="cls-4" cx="3.08" cy="5.35" r="0.48"/><circle class="cls-4" cx="3.49" cy="3.83" r="0.46"/><circle class="cls-4" cx="3.89" cy="2.32" r="0.44"/><circle class="cls-4" cx="4.3" cy="0.81" r="0.42"/><circle class="cls-4" cx="-0.63" cy="26.55" r="0.75"/><circle class="cls-4" cx="-0.23" cy="25.04" r="0.73"/><circle class="cls-4" cx="0.18" cy="23.52" r="0.71"/><circle class="cls-4" cx="0.58" cy="22.01" r="0.69"/><circle class="cls-4" cx="0.99" cy="20.5" r="0.67"/><circle class="cls-4" cx="1.39" cy="18.98" r="0.65"/><circle class="cls-4" cx="1.8" cy="17.47" r="0.63"/><circle class="cls-4" cx="2.21" cy="15.95" r="0.61"/><circle class="cls-4" cx="2.61" cy="14.44" r="0.6"/><circle class="cls-4" cx="3.02" cy="12.92" r="0.58"/><circle class="cls-4" cx="3.42" cy="11.41" r="0.56"/><circle class="cls-4" cx="3.83" cy="9.89" r="0.54"/><circle class="cls-4" cx="4.24" cy="8.38" r="0.52"/><circle class="cls-4" cx="4.64" cy="6.86" r="0.5"/><circle class="cls-4" cx="5.05" cy="5.35" r="0.48"/><circle class="cls-4" cx="5.45" cy="3.83" r="0.46"/><circle class="cls-4" cx="5.86" cy="2.32" r="0.44"/><circle class="cls-4" cx="6.26" cy="0.81" r="0.42"/><circle class="cls-4" cx="-0.7" cy="34.13" r="0.85"/><circle class="cls-4" cx="-0.29" cy="32.61" r="0.83"/><circle class="cls-4" cx="0.11" cy="31.1" r="0.81"/><circle class="cls-4" cx="0.52" cy="29.58" r="0.79"/><circle class="cls-4" cx="0.92" cy="28.07" r="0.77"/><circle class="cls-4" cx="1.33" cy="26.55" r="0.75"/><circle class="cls-4" cx="1.74" cy="25.04" r="0.73"/><circle class="cls-4" cx="2.14" cy="23.52" r="0.71"/><circle class="cls-4" cx="2.55" cy="22.01" r="0.69"/><circle class="cls-4" cx="2.95" cy="20.5" r="0.67"/><circle class="cls-4" cx="3.36" cy="18.98" r="0.65"/><circle class="cls-4" cx="3.76" cy="17.47" r="0.63"/><circle class="cls-4" cx="4.17" cy="15.95" r="0.61"/><circle class="cls-4" cx="4.58" cy="14.44" r="0.6"/><circle class="cls-4" cx="4.98" cy="12.92" r="0.58"/><circle class="cls-4" cx="5.39" cy="11.41" r="0.56"/><circle class="cls-4" cx="5.79" cy="9.89" r="0.54"/><circle class="cls-4" cx="6.2" cy="8.38" r="0.52"/><circle class="cls-4" cx="6.61" cy="6.86" r="0.5"/><circle class="cls-4" cx="7.01" cy="5.35" r="0.48"/><circle class="cls-4" cx="7.42" cy="3.83" r="0.46"/><circle class="cls-4" cx="7.82" cy="2.32" r="0.44"/><circle class="cls-4" cx="8.23" cy="0.81" r="0.42"/><circle class="cls-4" cx="1.26" cy="34.13" r="0.85"/><circle class="cls-4" cx="1.67" cy="32.61" r="0.83"/><circle class="cls-4" cx="2.08" cy="31.1" r="0.81"/><circle class="cls-4" cx="2.48" cy="29.58" r="0.79"/><circle class="cls-4" cx="2.89" cy="28.07" r="0.77"/><circle class="cls-4" cx="3.29" cy="26.55" r="0.75"/><circle class="cls-4" cx="3.7" cy="25.04" r="0.73"/><circle class="cls-4" cx="4.11" cy="23.52" r="0.71"/><circle class="cls-4" cx="4.51" cy="22.01" r="0.69"/><circle class="cls-4" cx="4.92" cy="20.5" r="0.67"/><circle class="cls-4" cx="5.32" cy="18.98" r="0.65"/><circle class="cls-4" cx="5.73" cy="17.47" r="0.63"/><circle class="cls-4" cx="6.14" cy="15.95" r="0.61"/><circle class="cls-4" cx="6.54" cy="14.44" r="0.6"/><circle class="cls-4" cx="6.95" cy="12.92" r="0.58"/><circle class="cls-4" cx="7.35" cy="11.41" r="0.56"/><circle class="cls-4" cx="7.76" cy="9.89" r="0.54"/><circle class="cls-4" cx="8.16" cy="8.38" r="0.52"/><circle class="cls-4" cx="8.57" cy="6.86" r="0.5"/><circle class="cls-4" cx="8.98" cy="5.35" r="0.48"/><circle class="cls-4" cx="9.38" cy="3.83" r="0.46"/><circle class="cls-4" cx="9.79" cy="2.32" r="0.44"/><circle class="cls-4" cx="10.19" cy="0.81" r="0.42"/><circle class="cls-4" cx="3.23" cy="34.13" r="0.85"/><circle class="cls-4" cx="3.64" cy="32.61" r="0.83"/><circle class="cls-4" cx="4.04" cy="31.1" r="0.81"/><circle class="cls-4" cx="4.45" cy="29.58" r="0.79"/><circle class="cls-4" cx="4.85" cy="28.07" r="0.77"/><circle class="cls-4" cx="5.26" cy="26.55" r="0.75"/><circle class="cls-4" cx="5.66" cy="25.04" r="0.73"/><circle class="cls-4" cx="6.07" cy="23.52" r="0.71"/><circle class="cls-4" cx="6.48" cy="22.01" r="0.69"/><circle class="cls-4" cx="6.88" cy="20.5" r="0.67"/><circle class="cls-4" cx="7.29" cy="18.98" r="0.65"/><circle class="cls-4" cx="7.69" cy="17.47" r="0.63"/><circle class="cls-4" cx="8.1" cy="15.95" r="0.61"/><circle class="cls-4" cx="8.51" cy="14.44" r="0.6"/><circle class="cls-4" cx="8.91" cy="12.92" r="0.58"/><circle class="cls-4" cx="9.32" cy="11.41" r="0.56"/><circle class="cls-4" cx="9.72" cy="9.89" r="0.54"/><circle class="cls-4" cx="10.13" cy="8.38" r="0.52"/><circle class="cls-4" cx="10.53" cy="6.86" r="0.5"/><circle class="cls-4" cx="10.94" cy="5.35" r="0.48"/><circle class="cls-4" cx="11.35" cy="3.83" r="0.46"/><circle class="cls-4" cx="11.75" cy="2.32" r="0.44"/><circle class="cls-4" cx="12.16" cy="0.81" r="0.42"/><circle class="cls-4" cx="5.19" cy="34.13" r="0.85"/><circle class="cls-4" cx="5.6" cy="32.61" r="0.83"/><circle class="cls-4" cx="6.01" cy="31.1" r="0.81"/><circle class="cls-4" cx="6.41" cy="29.58" r="0.79"/><circle class="cls-4" cx="6.82" cy="28.07" r="0.77"/><circle class="cls-4" cx="7.22" cy="26.55" r="0.75"/><circle class="cls-4" cx="7.63" cy="25.04" r="0.73"/><circle class="cls-4" cx="8.03" cy="23.52" r="0.71"/><circle class="cls-4" cx="8.44" cy="22.01" r="0.69"/><circle class="cls-4" cx="8.85" cy="20.5" r="0.67"/><circle class="cls-4" cx="9.25" cy="18.98" r="0.65"/><circle class="cls-4" cx="9.66" cy="17.47" r="0.63"/><circle class="cls-4" cx="10.06" cy="15.95" r="0.61"/><circle class="cls-4" cx="10.47" cy="14.44" r="0.6"/><circle class="cls-4" cx="10.88" cy="12.92" r="0.58"/><circle class="cls-4" cx="11.28" cy="11.41" r="0.56"/><circle class="cls-4" cx="11.69" cy="9.89" r="0.54"/><circle class="cls-4" cx="12.09" cy="8.38" r="0.52"/><circle class="cls-4" cx="12.5" cy="6.86" r="0.5"/><circle class="cls-4" cx="12.9" cy="5.35" r="0.48"/><circle class="cls-4" cx="13.31" cy="3.83" r="0.46"/><circle class="cls-4" cx="13.72" cy="2.32" r="0.44"/><circle class="cls-4" cx="14.12" cy="0.81" r="0.42"/><circle class="cls-4" cx="7.16" cy="34.13" r="0.85"/><circle class="cls-4" cx="7.56" cy="32.61" r="0.83"/><circle class="cls-4" cx="7.97" cy="31.1" r="0.81"/><circle class="cls-4" cx="8.38" cy="29.58" r="0.79"/><circle class="cls-4" cx="8.78" cy="28.07" r="0.77"/><circle class="cls-4" cx="9.19" cy="26.55" r="0.75"/><circle class="cls-4" cx="9.59" cy="25.04" r="0.73"/><circle class="cls-4" cx="10" cy="23.52" r="0.71"/><circle class="cls-4" cx="10.41" cy="22.01" r="0.69"/><circle class="cls-4" cx="10.81" cy="20.5" r="0.67"/><circle class="cls-4" cx="11.22" cy="18.98" r="0.65"/><circle class="cls-4" cx="11.62" cy="17.47" r="0.63"/><circle class="cls-4" cx="12.03" cy="15.95" r="0.61"/><circle class="cls-4" cx="12.43" cy="14.44" r="0.6"/><circle class="cls-4" cx="12.84" cy="12.92" r="0.58"/><circle class="cls-4" cx="13.25" cy="11.41" r="0.56"/><circle class="cls-4" cx="13.65" cy="9.89" r="0.54"/><circle class="cls-4" cx="14.06" cy="8.38" r="0.52"/><circle class="cls-4" cx="14.46" cy="6.86" r="0.5"/><circle class="cls-4" cx="14.87" cy="5.35" r="0.48"/><circle class="cls-4" cx="15.28" cy="3.83" r="0.46"/><circle class="cls-4" cx="15.68" cy="2.32" r="0.44"/><circle class="cls-4" cx="16.09" cy="0.81" r="0.42"/><circle class="cls-4" cx="9.12" cy="34.13" r="0.85"/><circle class="cls-4" cx="9.53" cy="32.61" r="0.83"/><circle class="cls-4" cx="9.93" cy="31.1" r="0.81"/><circle class="cls-4" cx="10.34" cy="29.58" r="0.79"/><circle class="cls-4" cx="10.75" cy="28.07" r="0.77"/><circle class="cls-4" cx="11.15" cy="26.55" r="0.75"/><circle class="cls-4" cx="11.56" cy="25.04" r="0.73"/><circle class="cls-4" cx="11.96" cy="23.52" r="0.71"/><circle class="cls-4" cx="12.37" cy="22.01" r="0.69"/><circle class="cls-4" cx="12.78" cy="20.5" r="0.67"/><circle class="cls-4" cx="13.18" cy="18.98" r="0.65"/><circle class="cls-4" cx="13.59" cy="17.47" r="0.63"/><circle class="cls-4" cx="13.99" cy="15.95" r="0.61"/><circle class="cls-4" cx="14.4" cy="14.44" r="0.6"/><circle class="cls-4" cx="14.8" cy="12.92" r="0.58"/><circle class="cls-4" cx="15.21" cy="11.41" r="0.56"/><circle class="cls-4" cx="15.62" cy="9.89" r="0.54"/><circle class="cls-4" cx="16.02" cy="8.38" r="0.52"/><circle class="cls-4" cx="16.43" cy="6.86" r="0.5"/><circle class="cls-4" cx="16.83" cy="5.35" r="0.48"/><circle class="cls-4" cx="17.24" cy="3.83" r="0.46"/><circle class="cls-4" cx="17.65" cy="2.32" r="0.44"/><circle class="cls-4" cx="18.05" cy="0.81" r="0.42"/><circle class="cls-4" cx="11.09" cy="34.13" r="0.85"/><circle class="cls-4" cx="11.49" cy="32.61" r="0.83"/><circle class="cls-4" cx="11.9" cy="31.1" r="0.81"/><circle class="cls-4" cx="12.3" cy="29.58" r="0.79"/><circle class="cls-4" cx="12.71" cy="28.07" r="0.77"/><circle class="cls-4" cx="13.12" cy="26.55" r="0.75"/><circle class="cls-4" cx="13.52" cy="25.04" r="0.73"/><circle class="cls-4" cx="13.93" cy="23.52" r="0.71"/><circle class="cls-4" cx="14.33" cy="22.01" r="0.69"/><circle class="cls-4" cx="14.74" cy="20.5" r="0.67"/><circle class="cls-4" cx="15.15" cy="18.98" r="0.65"/><circle class="cls-4" cx="15.55" cy="17.47" r="0.63"/><circle class="cls-4" cx="15.96" cy="15.95" r="0.61"/><circle class="cls-4" cx="16.36" cy="14.44" r="0.6"/><circle class="cls-4" cx="16.77" cy="12.92" r="0.58"/><circle class="cls-4" cx="17.17" cy="11.41" r="0.56"/><circle class="cls-4" cx="17.58" cy="9.89" r="0.54"/><circle class="cls-4" cx="17.99" cy="8.38" r="0.52"/><circle class="cls-4" cx="18.39" cy="6.86" r="0.5"/><circle class="cls-4" cx="18.8" cy="5.35" r="0.48"/><circle class="cls-4" cx="19.2" cy="3.83" r="0.46"/><circle class="cls-4" cx="19.61" cy="2.32" r="0.44"/><circle class="cls-4" cx="20.02" cy="0.81" r="0.42"/><circle class="cls-4" cx="13.05" cy="34.13" r="0.85"/><circle class="cls-4" cx="13.46" cy="32.61" r="0.83"/><circle class="cls-4" cx="13.86" cy="31.1" r="0.81"/><circle class="cls-4" cx="14.27" cy="29.58" r="0.79"/><circle class="cls-4" cx="14.68" cy="28.07" r="0.77"/><circle class="cls-4" cx="15.08" cy="26.55" r="0.75"/><circle class="cls-4" cx="15.49" cy="25.04" r="0.73"/><circle class="cls-4" cx="15.89" cy="23.52" r="0.71"/><circle class="cls-4" cx="16.3" cy="22.01" r="0.69"/><circle class="cls-4" cx="16.7" cy="20.5" r="0.67"/><circle class="cls-4" cx="17.11" cy="18.98" r="0.65"/><circle class="cls-4" cx="17.52" cy="17.47" r="0.63"/><circle class="cls-4" cx="17.92" cy="15.95" r="0.61"/><circle class="cls-4" cx="18.33" cy="14.44" r="0.6"/><circle class="cls-4" cx="18.73" cy="12.92" r="0.58"/><circle class="cls-4" cx="19.14" cy="11.41" r="0.56"/><circle class="cls-4" cx="19.55" cy="9.89" r="0.54"/><circle class="cls-4" cx="19.95" cy="8.38" r="0.52"/><circle class="cls-4" cx="20.36" cy="6.86" r="0.5"/><circle class="cls-4" cx="20.76" cy="5.35" r="0.48"/><circle class="cls-4" cx="21.17" cy="3.83" r="0.46"/><circle class="cls-4" cx="21.57" cy="2.32" r="0.44"/><circle class="cls-4" cx="21.98" cy="0.81" r="0.42"/><circle class="cls-4" cx="15.02" cy="34.13" r="0.85"/><circle class="cls-4" cx="15.42" cy="32.61" r="0.83"/><circle class="cls-4" cx="15.83" cy="31.1" r="0.81"/><circle class="cls-4" cx="16.23" cy="29.58" r="0.79"/><circle class="cls-4" cx="16.64" cy="28.07" r="0.77"/><circle class="cls-4" cx="17.05" cy="26.55" r="0.75"/><circle class="cls-4" cx="17.45" cy="25.04" r="0.73"/><circle class="cls-4" cx="17.86" cy="23.52" r="0.71"/><circle class="cls-4" cx="18.26" cy="22.01" r="0.69"/><circle class="cls-4" cx="18.67" cy="20.5" r="0.67"/><circle class="cls-4" cx="19.07" cy="18.98" r="0.65"/><circle class="cls-4" cx="19.48" cy="17.47" r="0.63"/><circle class="cls-4" cx="19.89" cy="15.95" r="0.61"/><circle class="cls-4" cx="20.29" cy="14.44" r="0.6"/><circle class="cls-4" cx="20.7" cy="12.92" r="0.58"/><circle class="cls-4" cx="21.1" cy="11.41" r="0.56"/><circle class="cls-4" cx="21.51" cy="9.89" r="0.54"/><circle class="cls-4" cx="21.92" cy="8.38" r="0.52"/><circle class="cls-4" cx="22.32" cy="6.86" r="0.5"/><circle class="cls-4" cx="22.73" cy="5.35" r="0.48"/><circle class="cls-4" cx="23.13" cy="3.83" r="0.46"/><circle class="cls-4" cx="23.54" cy="2.32" r="0.44"/><circle class="cls-4" cx="23.94" cy="0.81" r="0.42"/><circle class="cls-4" cx="16.98" cy="34.13" r="0.85"/><circle class="cls-4" cx="17.39" cy="32.61" r="0.83"/><circle class="cls-4" cx="17.79" cy="31.1" r="0.81"/><circle class="cls-4" cx="18.2" cy="29.58" r="0.79"/><circle class="cls-4" cx="18.6" cy="28.07" r="0.77"/><circle class="cls-4" cx="19.01" cy="26.55" r="0.75"/><circle class="cls-4" cx="19.42" cy="25.04" r="0.73"/><circle class="cls-4" cx="19.82" cy="23.52" r="0.71"/><circle class="cls-4" cx="20.23" cy="22.01" r="0.69"/><circle class="cls-4" cx="20.63" cy="20.5" r="0.67"/><circle class="cls-4" cx="21.04" cy="18.98" r="0.65"/><circle class="cls-4" cx="21.44" cy="17.47" r="0.63"/><circle class="cls-4" cx="21.85" cy="15.95" r="0.61"/><circle class="cls-4" cx="22.26" cy="14.44" r="0.6"/><circle class="cls-4" cx="22.66" cy="12.92" r="0.58"/><circle class="cls-4" cx="23.07" cy="11.41" r="0.56"/><circle class="cls-4" cx="23.47" cy="9.89" r="0.54"/><circle class="cls-4" cx="23.88" cy="8.38" r="0.52"/><circle class="cls-4" cx="24.29" cy="6.86" r="0.5"/><circle class="cls-4" cx="24.69" cy="5.35" r="0.48"/><circle class="cls-4" cx="25.1" cy="3.83" r="0.46"/><circle class="cls-4" cx="25.5" cy="2.32" r="0.44"/><circle class="cls-4" cx="25.91" cy="0.81" r="0.42"/><circle class="cls-4" cx="18.95" cy="34.13" r="0.85"/><circle class="cls-4" cx="19.35" cy="32.61" r="0.83"/><circle class="cls-4" cx="19.76" cy="31.1" r="0.81"/><circle class="cls-4" cx="20.16" cy="29.58" r="0.79"/><circle class="cls-4" cx="20.57" cy="28.07" r="0.77"/><circle class="cls-4" cx="20.97" cy="26.55" r="0.75"/><circle class="cls-4" cx="21.38" cy="25.04" r="0.73"/><circle class="cls-4" cx="21.79" cy="23.52" r="0.71"/><circle class="cls-4" cx="22.19" cy="22.01" r="0.69"/><circle class="cls-4" cx="22.6" cy="20.5" r="0.67"/><circle class="cls-4" cx="23" cy="18.98" r="0.65"/><circle class="cls-4" cx="23.41" cy="17.47" r="0.63"/><circle class="cls-4" cx="23.82" cy="15.95" r="0.61"/><circle class="cls-4" cx="24.22" cy="14.44" r="0.6"/><circle class="cls-4" cx="24.63" cy="12.92" r="0.58"/><circle class="cls-4" cx="25.03" cy="11.41" r="0.56"/><circle class="cls-4" cx="25.44" cy="9.89" r="0.54"/><circle class="cls-4" cx="25.84" cy="8.38" r="0.52"/><circle class="cls-4" cx="26.25" cy="6.86" r="0.5"/><circle class="cls-4" cx="26.66" cy="5.35" r="0.48"/><circle class="cls-4" cx="27.06" cy="3.83" r="0.46"/><circle class="cls-4" cx="27.47" cy="2.32" r="0.44"/><circle class="cls-4" cx="27.87" cy="0.81" r="0.42"/><circle class="cls-4" cx="20.91" cy="34.13" r="0.85"/><circle class="cls-4" cx="21.32" cy="32.61" r="0.83"/><circle class="cls-4" cx="21.72" cy="31.1" r="0.81"/><circle class="cls-4" cx="22.13" cy="29.58" r="0.79"/><circle class="cls-4" cx="22.53" cy="28.07" r="0.77"/><circle class="cls-4" cx="22.94" cy="26.55" r="0.75"/><circle class="cls-4" cx="23.34" cy="25.04" r="0.73"/><circle class="cls-4" cx="23.75" cy="23.52" r="0.71"/><circle class="cls-4" cx="24.16" cy="22.01" r="0.69"/><circle class="cls-4" cx="24.56" cy="20.5" r="0.67"/><circle class="cls-4" cx="24.97" cy="18.98" r="0.65"/><circle class="cls-4" cx="25.37" cy="17.47" r="0.63"/><circle class="cls-4" cx="25.78" cy="15.95" r="0.61"/><circle class="cls-4" cx="26.19" cy="14.44" r="0.6"/><circle class="cls-4" cx="26.59" cy="12.92" r="0.58"/><circle class="cls-4" cx="27" cy="11.41" r="0.56"/><circle class="cls-4" cx="27.4" cy="9.89" r="0.54"/><circle class="cls-4" cx="27.81" cy="8.38" r="0.52"/><circle class="cls-4" cx="28.21" cy="6.86" r="0.5"/><circle class="cls-4" cx="28.62" cy="5.35" r="0.48"/><circle class="cls-4" cx="29.03" cy="3.83" r="0.46"/><circle class="cls-4" cx="29.43" cy="2.32" r="0.44"/><circle class="cls-4" cx="29.84" cy="0.81" r="0.42"/><circle class="cls-4" cx="22.87" cy="34.13" r="0.85"/><circle class="cls-4" cx="23.28" cy="32.61" r="0.83"/><circle class="cls-4" cx="23.69" cy="31.1" r="0.81"/><circle class="cls-4" cx="24.09" cy="29.58" r="0.79"/><circle class="cls-4" cx="24.5" cy="28.07" r="0.77"/><circle class="cls-4" cx="24.9" cy="26.55" r="0.75"/><circle class="cls-4" cx="25.31" cy="25.04" r="0.73"/><circle class="cls-4" cx="25.71" cy="23.52" r="0.71"/><circle class="cls-4" cx="26.12" cy="22.01" r="0.69"/><circle class="cls-4" cx="26.53" cy="20.5" r="0.67"/><circle class="cls-4" cx="26.93" cy="18.98" r="0.65"/><circle class="cls-4" cx="27.34" cy="17.47" r="0.63"/><circle class="cls-4" cx="27.74" cy="15.95" r="0.61"/><circle class="cls-4" cx="28.15" cy="14.44" r="0.6"/><circle class="cls-4" cx="28.56" cy="12.92" r="0.58"/><circle class="cls-4" cx="28.96" cy="11.41" r="0.56"/><circle class="cls-4" cx="29.37" cy="9.89" r="0.54"/><circle class="cls-4" cx="29.77" cy="8.38" r="0.52"/><circle class="cls-4" cx="30.18" cy="6.86" r="0.5"/><circle class="cls-4" cx="30.58" cy="5.35" r="0.48"/><circle class="cls-4" cx="30.99" cy="3.83" r="0.46"/><circle class="cls-4" cx="31.4" cy="2.32" r="0.44"/><circle class="cls-4" cx="31.8" cy="0.81" r="0.42"/><circle class="cls-4" cx="24.84" cy="34.13" r="0.85"/><circle class="cls-4" cx="25.24" cy="32.61" r="0.83"/><circle class="cls-4" cx="25.65" cy="31.1" r="0.81"/><circle class="cls-4" cx="26.06" cy="29.58" r="0.79"/><circle class="cls-4" cx="26.46" cy="28.07" r="0.77"/><circle class="cls-4" cx="26.87" cy="26.55" r="0.75"/><circle class="cls-4" cx="27.27" cy="25.04" r="0.73"/><circle class="cls-4" cx="27.68" cy="23.52" r="0.71"/><circle class="cls-4" cx="28.09" cy="22.01" r="0.69"/><circle class="cls-4" cx="28.49" cy="20.5" r="0.67"/><circle class="cls-4" cx="28.9" cy="18.98" r="0.65"/><circle class="cls-4" cx="29.3" cy="17.47" r="0.63"/><circle class="cls-4" cx="29.71" cy="15.95" r="0.61"/><circle class="cls-4" cx="30.11" cy="14.44" r="0.6"/><circle class="cls-4" cx="30.52" cy="12.92" r="0.58"/><circle class="cls-4" cx="30.93" cy="11.41" r="0.56"/><circle class="cls-4" cx="31.33" cy="9.89" r="0.54"/><circle class="cls-4" cx="31.74" cy="8.38" r="0.52"/><circle class="cls-4" cx="32.14" cy="6.86" r="0.5"/><circle class="cls-4" cx="32.55" cy="5.35" r="0.48"/><circle class="cls-4" cx="32.96" cy="3.83" r="0.46"/><circle class="cls-4" cx="33.36" cy="2.32" r="0.44"/><circle class="cls-4" cx="33.77" cy="0.81" r="0.42"/><circle class="cls-4" cx="26.8" cy="34.13" r="0.85"/><circle class="cls-4" cx="27.21" cy="32.61" r="0.83"/><circle class="cls-4" cx="27.61" cy="31.1" r="0.81"/><circle class="cls-4" cx="28.02" cy="29.58" r="0.79"/><circle class="cls-4" cx="28.43" cy="28.07" r="0.77"/><circle class="cls-4" cx="28.83" cy="26.55" r="0.75"/><circle class="cls-4" cx="29.24" cy="25.04" r="0.73"/><circle class="cls-4" cx="29.64" cy="23.52" r="0.71"/><circle class="cls-4" cx="30.05" cy="22.01" r="0.69"/><circle class="cls-4" cx="30.46" cy="20.5" r="0.67"/><circle class="cls-4" cx="30.86" cy="18.98" r="0.65"/><circle class="cls-4" cx="31.27" cy="17.47" r="0.63"/><circle class="cls-4" cx="31.67" cy="15.95" r="0.61"/><circle class="cls-4" cx="32.08" cy="14.44" r="0.6"/><circle class="cls-4" cx="32.48" cy="12.92" r="0.58"/><circle class="cls-4" cx="32.89" cy="11.41" r="0.56"/><circle class="cls-4" cx="33.3" cy="9.89" r="0.54"/><circle class="cls-4" cx="33.7" cy="8.38" r="0.52"/><circle class="cls-4" cx="34.11" cy="6.86" r="0.5"/><circle class="cls-4" cx="34.51" cy="5.35" r="0.48"/><circle class="cls-4" cx="34.92" cy="3.83" r="0.46"/><circle class="cls-4" cx="35.33" cy="2.32" r="0.44"/><circle class="cls-4" cx="35.73" cy="0.81" r="0.42"/><circle class="cls-4" cx="28.77" cy="34.13" r="0.85"/><circle class="cls-4" cx="29.17" cy="32.61" r="0.83"/><circle class="cls-4" cx="29.58" cy="31.1" r="0.81"/><circle class="cls-4" cx="29.98" cy="29.58" r="0.79"/><circle class="cls-4" cx="30.39" cy="28.07" r="0.77"/><circle class="cls-4" cx="30.8" cy="26.55" r="0.75"/><circle class="cls-4" cx="31.2" cy="25.04" r="0.73"/><circle class="cls-4" cx="31.61" cy="23.52" r="0.71"/><circle class="cls-4" cx="32.01" cy="22.01" r="0.69"/><circle class="cls-4" cx="32.42" cy="20.5" r="0.67"/><circle class="cls-4" cx="32.83" cy="18.98" r="0.65"/><circle class="cls-4" cx="33.23" cy="17.47" r="0.63"/><circle class="cls-4" cx="33.64" cy="15.95" r="0.61"/><circle class="cls-4" cx="34.04" cy="14.44" r="0.6"/><circle class="cls-4" cx="34.45" cy="12.92" r="0.58"/><circle class="cls-4" cx="34.85" cy="11.41" r="0.56"/><circle class="cls-4" cx="35.26" cy="9.89" r="0.54"/><circle class="cls-4" cx="35.67" cy="8.38" r="0.52"/><circle class="cls-4" cx="36.07" cy="6.86" r="0.5"/><circle class="cls-4" cx="36.48" cy="5.35" r="0.48"/><circle class="cls-4" cx="36.88" cy="3.83" r="0.46"/><circle class="cls-4" cx="37.29" cy="2.32" r="0.44"/><circle class="cls-4" cx="37.7" cy="0.81" r="0.42"/><circle class="cls-4" cx="30.73" cy="34.13" r="0.85"/><circle class="cls-4" cx="31.14" cy="32.61" r="0.83"/><circle class="cls-4" cx="31.54" cy="31.1" r="0.81"/><circle class="cls-4" cx="31.95" cy="29.58" r="0.79"/><circle class="cls-4" cx="32.36" cy="28.07" r="0.77"/><circle class="cls-4" cx="32.76" cy="26.55" r="0.75"/><circle class="cls-4" cx="33.17" cy="25.04" r="0.73"/><circle class="cls-4" cx="33.57" cy="23.52" r="0.71"/><circle class="cls-4" cx="33.98" cy="22.01" r="0.69"/><circle class="cls-4" cx="34.38" cy="20.5" r="0.67"/><circle class="cls-4" cx="34.79" cy="18.98" r="0.65"/><circle class="cls-4" cx="35.2" cy="17.47" r="0.63"/><circle class="cls-4" cx="35.6" cy="15.95" r="0.61"/><circle class="cls-4" cx="36.01" cy="14.44" r="0.6"/><circle class="cls-4" cx="36.41" cy="12.92" r="0.58"/><circle class="cls-4" cx="36.82" cy="11.41" r="0.56"/><circle class="cls-4" cx="37.23" cy="9.89" r="0.54"/><circle class="cls-4" cx="37.63" cy="8.38" r="0.52"/><circle class="cls-4" cx="38.04" cy="6.86" r="0.5"/><circle class="cls-4" cx="38.44" cy="5.35" r="0.48"/><circle class="cls-4" cx="38.85" cy="3.83" r="0.46"/><circle class="cls-4" cx="39.25" cy="2.32" r="0.44"/><circle class="cls-4" cx="39.66" cy="0.81" r="0.42"/><circle class="cls-4" cx="32.7" cy="34.13" r="0.85"/><circle class="cls-4" cx="33.1" cy="32.61" r="0.83"/><circle class="cls-4" cx="33.51" cy="31.1" r="0.81"/><circle class="cls-4" cx="33.91" cy="29.58" r="0.79"/><circle class="cls-4" cx="34.32" cy="28.07" r="0.77"/><circle class="cls-4" cx="34.73" cy="26.55" r="0.75"/><circle class="cls-4" cx="35.13" cy="25.04" r="0.73"/><circle class="cls-4" cx="35.54" cy="23.52" r="0.71"/><circle class="cls-4" cx="35.94" cy="22.01" r="0.69"/><circle class="cls-4" cx="36.35" cy="20.5" r="0.67"/><circle class="cls-4" cx="36.75" cy="18.98" r="0.65"/><circle class="cls-4" cx="37.16" cy="17.47" r="0.63"/><circle class="cls-4" cx="37.57" cy="15.95" r="0.61"/><circle class="cls-4" cx="37.97" cy="14.44" r="0.6"/><circle class="cls-4" cx="38.38" cy="12.92" r="0.58"/><circle class="cls-4" cx="38.78" cy="11.41" r="0.56"/><circle class="cls-4" cx="39.19" cy="9.89" r="0.54"/><circle class="cls-4" cx="39.6" cy="8.38" r="0.52"/><circle class="cls-4" cx="40" cy="6.86" r="0.5"/><circle class="cls-4" cx="40.41" cy="5.35" r="0.48"/><circle class="cls-4" cx="40.81" cy="3.83" r="0.46"/><circle class="cls-4" cx="41.22" cy="2.32" r="0.44"/><circle class="cls-4" cx="41.62" cy="0.81" r="0.42"/><circle class="cls-4" cx="34.66" cy="34.13" r="0.85"/><circle class="cls-4" cx="35.07" cy="32.61" r="0.83"/><circle class="cls-4" cx="35.47" cy="31.1" r="0.81"/><circle class="cls-4" cx="35.88" cy="29.58" r="0.79"/><circle class="cls-4" cx="36.28" cy="28.07" r="0.77"/><circle class="cls-4" cx="36.69" cy="26.55" r="0.75"/><circle class="cls-4" cx="37.1" cy="25.04" r="0.73"/><circle class="cls-4" cx="37.5" cy="23.52" r="0.71"/><circle class="cls-4" cx="37.91" cy="22.01" r="0.69"/><circle class="cls-4" cx="38.31" cy="20.5" r="0.67"/><circle class="cls-4" cx="38.72" cy="18.98" r="0.65"/><circle class="cls-4" cx="39.12" cy="17.47" r="0.63"/><circle class="cls-4" cx="39.53" cy="15.95" r="0.61"/><circle class="cls-4" cx="39.94" cy="14.44" r="0.6"/><circle class="cls-4" cx="40.34" cy="12.92" r="0.58"/><circle class="cls-4" cx="40.75" cy="11.41" r="0.56"/><circle class="cls-4" cx="41.15" cy="9.89" r="0.54"/><circle class="cls-4" cx="41.56" cy="8.38" r="0.52"/><circle class="cls-4" cx="41.97" cy="6.86" r="0.5"/><circle class="cls-4" cx="42.37" cy="5.35" r="0.48"/><circle class="cls-4" cx="42.78" cy="3.83" r="0.46"/><circle class="cls-4" cx="43.18" cy="2.32" r="0.44"/><circle class="cls-4" cx="43.59" cy="0.81" r="0.42"/><circle class="cls-4" cx="36.63" cy="34.13" r="0.85"/><circle class="cls-4" cx="37.03" cy="32.61" r="0.83"/><circle class="cls-4" cx="37.44" cy="31.1" r="0.81"/><circle class="cls-4" cx="37.84" cy="29.58" r="0.79"/><circle class="cls-4" cx="38.25" cy="28.07" r="0.77"/><circle class="cls-4" cx="38.65" cy="26.55" r="0.75"/><circle class="cls-4" cx="39.06" cy="25.04" r="0.73"/><circle class="cls-4" cx="39.47" cy="23.52" r="0.71"/><circle class="cls-4" cx="39.87" cy="22.01" r="0.69"/><circle class="cls-4" cx="40.28" cy="20.5" r="0.67"/><circle class="cls-4" cx="40.68" cy="18.98" r="0.65"/><circle class="cls-4" cx="41.09" cy="17.47" r="0.63"/><circle class="cls-4" cx="41.5" cy="15.95" r="0.61"/><circle class="cls-4" cx="41.9" cy="14.44" r="0.6"/><circle class="cls-4" cx="42.31" cy="12.92" r="0.58"/><circle class="cls-4" cx="42.71" cy="11.41" r="0.56"/><circle class="cls-4" cx="43.12" cy="9.89" r="0.54"/><circle class="cls-4" cx="43.52" cy="8.38" r="0.52"/><circle class="cls-4" cx="43.93" cy="6.86" r="0.5"/><circle class="cls-4" cx="44.34" cy="5.35" r="0.48"/><circle class="cls-4" cx="44.74" cy="3.83" r="0.46"/><circle class="cls-4" cx="45.15" cy="2.32" r="0.44"/><circle class="cls-4" cx="45.55" cy="0.81" r="0.42"/><circle class="cls-4" cx="38.59" cy="34.13" r="0.85"/><circle class="cls-4" cx="39" cy="32.61" r="0.83"/><circle class="cls-4" cx="39.4" cy="31.1" r="0.81"/><circle class="cls-4" cx="39.81" cy="29.58" r="0.79"/><circle class="cls-4" cx="40.21" cy="28.07" r="0.77"/><circle class="cls-4" cx="40.62" cy="26.55" r="0.75"/><circle class="cls-4" cx="41.02" cy="25.04" r="0.73"/><circle class="cls-4" cx="41.43" cy="23.52" r="0.71"/><circle class="cls-4" cx="41.84" cy="22.01" r="0.69"/><circle class="cls-4" cx="42.24" cy="20.5" r="0.67"/><circle class="cls-4" cx="42.65" cy="18.98" r="0.65"/><circle class="cls-4" cx="43.05" cy="17.47" r="0.63"/><circle class="cls-4" cx="43.46" cy="15.95" r="0.61"/><circle class="cls-4" cx="43.87" cy="14.44" r="0.6"/><circle class="cls-4" cx="44.27" cy="12.92" r="0.58"/><circle class="cls-4" cx="44.68" cy="11.41" r="0.56"/><circle class="cls-4" cx="45.08" cy="9.89" r="0.54"/><circle class="cls-4" cx="45.49" cy="8.38" r="0.52"/><circle class="cls-4" cx="45.89" cy="6.86" r="0.5"/><circle class="cls-4" cx="46.3" cy="5.35" r="0.48"/><circle class="cls-4" cx="46.71" cy="3.83" r="0.46"/><circle class="cls-4" cx="47.11" cy="2.32" r="0.44"/><circle class="cls-4" cx="47.52" cy="0.81" r="0.42"/><circle class="cls-4" cx="40.55" cy="34.13" r="0.85"/><circle class="cls-4" cx="40.96" cy="32.61" r="0.83"/><circle class="cls-4" cx="41.37" cy="31.1" r="0.81"/><circle class="cls-4" cx="41.77" cy="29.58" r="0.79"/><circle class="cls-4" cx="42.18" cy="28.07" r="0.77"/><circle class="cls-4" cx="42.58" cy="26.55" r="0.75"/><circle class="cls-4" cx="42.99" cy="25.04" r="0.73"/><circle class="cls-4" cx="43.39" cy="23.52" r="0.71"/><circle class="cls-4" cx="43.8" cy="22.01" r="0.69"/><circle class="cls-4" cx="44.21" cy="20.5" r="0.67"/><circle class="cls-4" cx="44.61" cy="18.98" r="0.65"/><circle class="cls-4" cx="45.02" cy="17.47" r="0.63"/><circle class="cls-4" cx="45.42" cy="15.95" r="0.61"/><circle class="cls-4" cx="45.83" cy="14.44" r="0.6"/><circle class="cls-4" cx="46.24" cy="12.92" r="0.58"/><circle class="cls-4" cx="46.64" cy="11.41" r="0.56"/><circle class="cls-4" cx="47.05" cy="9.89" r="0.54"/><circle class="cls-4" cx="47.45" cy="8.38" r="0.52"/><circle class="cls-4" cx="47.86" cy="6.86" r="0.5"/><circle class="cls-4" cx="48.26" cy="5.35" r="0.48"/><circle class="cls-4" cx="48.67" cy="3.83" r="0.46"/><circle class="cls-4" cx="49.08" cy="2.32" r="0.44"/><circle class="cls-4" cx="49.48" cy="0.81" r="0.42"/><circle class="cls-4" cx="42.52" cy="34.13" r="0.85"/><circle class="cls-4" cx="42.92" cy="32.61" r="0.83"/><circle class="cls-4" cx="43.33" cy="31.1" r="0.81"/><circle class="cls-4" cx="43.74" cy="29.58" r="0.79"/><circle class="cls-4" cx="44.14" cy="28.07" r="0.77"/><circle class="cls-4" cx="44.55" cy="26.55" r="0.75"/><circle class="cls-4" cx="44.95" cy="25.04" r="0.73"/><circle class="cls-4" cx="45.36" cy="23.52" r="0.71"/><circle class="cls-4" cx="45.77" cy="22.01" r="0.69"/><circle class="cls-4" cx="46.17" cy="20.5" r="0.67"/><circle class="cls-4" cx="46.58" cy="18.98" r="0.65"/><circle class="cls-4" cx="46.98" cy="17.47" r="0.63"/><circle class="cls-4" cx="47.39" cy="15.95" r="0.61"/><circle class="cls-4" cx="47.79" cy="14.44" r="0.6"/><circle class="cls-4" cx="48.2" cy="12.92" r="0.58"/><circle class="cls-4" cx="48.61" cy="11.41" r="0.56"/><circle class="cls-4" cx="49.01" cy="9.89" r="0.54"/><circle class="cls-4" cx="49.42" cy="8.38" r="0.52"/><circle class="cls-4" cx="44.48" cy="34.13" r="0.85"/><circle class="cls-4" cx="44.89" cy="32.61" r="0.83"/><circle class="cls-4" cx="45.29" cy="31.1" r="0.81"/><circle class="cls-4" cx="45.7" cy="29.58" r="0.79"/><circle class="cls-4" cx="46.11" cy="28.07" r="0.77"/><circle class="cls-4" cx="46.51" cy="26.55" r="0.75"/><circle class="cls-4" cx="46.92" cy="25.04" r="0.73"/><circle class="cls-4" cx="47.32" cy="23.52" r="0.71"/><circle class="cls-4" cx="47.73" cy="22.01" r="0.69"/><circle class="cls-4" cx="48.14" cy="20.5" r="0.67"/><circle class="cls-4" cx="48.54" cy="18.98" r="0.65"/><circle class="cls-4" cx="48.95" cy="17.47" r="0.63"/><circle class="cls-4" cx="49.35" cy="15.95" r="0.61"/><circle class="cls-4" cx="46.45" cy="34.13" r="0.85"/><circle class="cls-4" cx="46.85" cy="32.61" r="0.83"/><circle class="cls-4" cx="47.26" cy="31.1" r="0.81"/><circle class="cls-4" cx="47.66" cy="29.58" r="0.79"/><circle class="cls-4" cx="48.07" cy="28.07" r="0.77"/><circle class="cls-4" cx="48.48" cy="26.55" r="0.75"/><circle class="cls-4" cx="48.88" cy="25.04" r="0.73"/><circle class="cls-4" cx="49.29" cy="23.52" r="0.71"/><circle class="cls-4" cx="49.69" cy="22.01" r="0.69"/><circle class="cls-4" cx="48.41" cy="34.13" r="0.85"/><circle class="cls-4" cx="48.82" cy="32.61" r="0.83"/><circle class="cls-4" cx="49.22" cy="31.1" r="0.81"/><circle class="cls-4" cx="49.63" cy="29.58" r="0.79"/></g></g></g></g></svg>